<svg width="16" height="16" viewBox="0 0 16 16" fill="none" xmlns="http://www.w3.org/2000/svg">
    <g clip-path="url(#clip0_17604_491188)">
        <path
            d="M7.58668 1.34601C7.09543 1.80376 6.70142 2.35576 6.42814 2.96909C6.15486 3.58242 6.00791 4.24451 5.99607 4.91586C5.98422 5.58721 6.10772 6.25407 6.35919 6.87666C6.61067 7.49925 6.98496 8.06481 7.45975 8.5396C7.93455 9.01439 8.50011 9.38869 9.12269 9.64016C9.74528 9.89163 10.4121 10.0151 11.0835 10.0033C11.7548 9.99144 12.4169 9.8445 13.0303 9.57122C13.6436 9.29794 14.1956 8.90392 14.6533 8.41268C14.4413 11.9027 11.544 14.6667 8.00068 14.6667C4.31801 14.6667 1.33334 11.682 1.33334 8.00001C1.33334 4.45668 4.09734 1.55934 7.58668 1.34601Z"
            fill="#757575" />
    </g>
    <defs>
        <clipPath id="clip0_17604_491188">
            <rect width="16" height="16" fill="white" />
        </clipPath>
    </defs>
</svg>